<svg width="57" height="53" viewBox="0 0 57 53" fill="none"
  xmlns="http://www.w3.org/2000/svg">
  <path fill-rule="evenodd" clip-rule="evenodd" d="M57 2.375C57 1.87772 56.8025 1.40081 56.4508 1.04918C56.0992 0.697544 55.6223 0.5 55.125 0.5H49.5C49.0818 0.500116 48.6756 0.640065 48.346 0.897593C48.0165 1.15512 47.7825 1.51544 47.6813 1.92125L46.1625 8H2.625C2.3402 8.00008 2.05915 8.06504 1.80319 8.18995C1.54724 8.31486 1.3231 8.49644 1.1478 8.7209C0.972491 8.94536 0.850624 9.20681 0.791445 9.4854C0.732267 9.764 0.737331 10.0524 0.806255 10.3287L6.43125 32.8288C6.53247 33.2346 6.76646 33.5949 7.09601 33.8524C7.42556 34.1099 7.83176 34.2499 8.25 34.25H42C42.4182 34.2499 42.8244 34.1099 43.154 33.8524C43.4835 33.5949 43.7175 33.2346 43.8188 32.8288L50.9625 4.25H55.125C55.6223 4.25 56.0992 4.05246 56.4508 3.70082C56.8025 3.34919 57 2.87228 57 2.375ZM45.225 11.75L40.5375 30.5H9.7125L5.025 11.75H45.225ZM38.25 41.75C39.2446 41.75 40.1984 42.1451 40.9017 42.8484C41.6049 43.5516 42 44.5054 42 45.5C42 46.4946 41.6049 47.4484 40.9017 48.1516C40.1984 48.8549 39.2446 49.25 38.25 49.25C37.2554 49.25 36.3016 48.8549 35.5984 48.1516C34.8951 47.4484 34.5 46.4946 34.5 45.5C34.5 44.5054 34.8951 43.5516 35.5984 42.8484C36.3016 42.1451 37.2554 41.75 38.25 41.75ZM45.75 45.5C45.75 43.5109 44.9598 41.6032 43.5533 40.1967C42.1468 38.7902 40.2391 38 38.25 38C36.2609 38 34.3532 38.7902 32.9467 40.1967C31.5402 41.6032 30.75 43.5109 30.75 45.5C30.75 47.4891 31.5402 49.3968 32.9467 50.8033C34.3532 52.2098 36.2609 53 38.25 53C40.2391 53 42.1468 52.2098 43.5533 50.8033C44.9598 49.3968 45.75 47.4891 45.75 45.5ZM12 41.75C12.9946 41.75 13.9484 42.1451 14.6517 42.8484C15.3549 43.5516 15.75 44.5054 15.75 45.5C15.75 46.4946 15.3549 47.4484 14.6517 48.1516C13.9484 48.8549 12.9946 49.25 12 49.25C11.0054 49.25 10.0516 48.8549 9.34835 48.1516C8.64509 47.4484 8.25 46.4946 8.25 45.5C8.25 44.5054 8.64509 43.5516 9.34835 42.8484C10.0516 42.1451 11.0054 41.75 12 41.75ZM19.5 45.5C19.5 43.5109 18.7098 41.6032 17.3033 40.1967C15.8968 38.7902 13.9891 38 12 38C10.0109 38 8.10323 38.7902 6.6967 40.1967C5.29018 41.6032 4.5 43.5109 4.5 45.5C4.5 47.4891 5.29018 49.3968 6.6967 50.8033C8.10323 52.2098 10.0109 53 12 53C13.9891 53 15.8968 52.2098 17.3033 50.8033C18.7098 49.3968 19.5 47.4891 19.5 45.5Z" fill="black"/>
</svg>
